<?xml version="1.0" encoding="UTF-8"?>
<svg id="Layer_1" xmlns="http://www.w3.org/2000/svg" width="227.41" height="126.35" viewBox="0 0 227.41 126.35">
  <defs>
    <style>
      .cls-1 {
        fill: #fff;
      }
    </style>
  </defs>
  <path class="cls-1" d="M222.8,39.68h-2.72v-20.23c3.76-1.54,6.4-5.14,6.4-9.33,0-5.59-4.69-10.13-10.48-10.13s-10.48,4.54-10.48,10.13c0,4.19,2.64,7.79,6.4,9.33v20.23h-7.33v42.98h18.21c2.55,0,4.61-1.99,4.61-4.45v-34.07c0-2.46-2.06-4.45-4.61-4.45Z"/>
  <g>
    <path class="cls-1" d="M147.14,68.91c-1.17,0-2.13,1.32-2.13,2.96s.95,2.96,2.13,2.96,2.13-1.32,2.13-2.96-.95-2.96-2.13-2.96Z"/>
    <path class="cls-1" d="M141.08,62.38c1.01.82,2.31.33,2.9-1.08.59-1.41.24-3.22-.78-4.04s-2.31-.33-2.9,1.08c-.59,1.41-.24,3.22.78,4.04Z"/>
    <path class="cls-1" d="M141.08,65.29c-1.01.82-1.36,2.62-.78,4.04.59,1.41,1.88,1.9,2.9,1.08,1.01-.82,1.36-2.62.78-4.04-.59-1.41-1.88-1.9-2.9-1.08Z"/>
    <path class="cls-1" d="M153.19,62.38c1.01-.82,1.36-2.62.78-4.04-.59-1.41-1.88-1.9-2.9-1.08-1.01.82-1.36,2.62-.78,4.04.59,1.41,1.88,1.9,2.9,1.08Z"/>
    <g>
      <g>
        <path class="cls-1" d="M45,60.44c-.54,0-.97.61-.97,1.35s.44,1.35.97,1.35.97-.61.97-1.35-.44-1.35-.97-1.35Z"/>
        <polygon class="cls-1" points="59.65 62.19 57.61 62.19 56.58 64.47 58.62 64.47 59.65 62.19"/>
        <polygon class="cls-1" points="48.58 55.95 46.65 56.85 46.19 59.47 48.12 58.57 48.58 55.95"/>
        <polygon class="cls-1" points="53.35 53.73 51.42 54.63 50.96 57.25 52.89 56.35 53.35 53.73"/>
        <polygon class="cls-1" points="48.55 64.47 49.58 62.19 47.54 62.19 46.51 64.47 48.55 64.47"/>
        <path class="cls-1" d="M77.93,13.51h-33.22c-12.43,33.41-12.43,66.82,0,100.23h33.22c-9.01-33.01-9.01-66.42,0-100.23h0ZM62.09,76.63c0,.49-.29.89-.64.89h-16.74c-.35,0-.64-.4-.64-.89v-12.52c-.58-.45-.98-1.32-.98-2.32,0-.77.24-1.46.61-1.94l-.37-1.57c-.11-.46.07-.97.4-1.12l15.88-7.38c.33-.15.7.1.8.56l.77,3.2-14.6,6.79c.17.34.27.73.31,1.16h15.19v15.15h0Z"/>
        <polygon class="cls-1" points="58.13 51.51 56.2 52.41 55.73 55.03 57.66 54.13 58.13 51.51"/>
        <polygon class="cls-1" points="54.62 62.19 52.58 62.19 51.54 64.47 53.58 64.47 54.62 62.19"/>
        <polygon class="cls-1" points="52.08 73.2 55.52 70.2 52.08 67.19 52.08 73.2"/>
      </g>
      <g>
        <path class="cls-1" d="M104.95,57.55v-3.52c0-.11.03-.21.09-.29l1.64-2.3-.22-.31-1.82,2.54v3.87h.32,0Z"/>
        <g>
          <polygon class="cls-1" points="92.57 58.52 94.23 76.49 95.12 76.49 94.2 58.52 92.57 58.52"/>
          <polygon class="cls-1" points="95.7 76.49 96.71 76.49 96.71 58.52 94.79 58.52 95.7 76.49"/>
          <polygon class="cls-1" points="91.31 58.52 92.97 76.49 93.64 76.49 91.98 58.52 91.31 58.52"/>
          <polygon class="cls-1" points="97.28 58.52 97.28 76.49 98.3 76.49 99.22 58.52 97.28 58.52"/>
          <path class="cls-1" d="M102.5,67.13c0-3.57.42-5.53.7-6.44h-2.75l.28,4.06c.01.22-.1.42-.26.44-.16.02-.3-.14-.32-.36l-.29-4.14h-.18l-.8,15.81h.89l.32-3.54c.02-.22.17-.38.32-.35.16.03.27.23.25.45l-.32,3.44h.59l-.57-8.3c-.01-.22.1-.42.26-.44.16-.02.3.14.32.36l.57,8.37h3.88c-.06-2.67-.74-3.64-1.46-4.66s-1.45-2.07-1.45-4.7h0Z"/>
          <path class="cls-1" d="M105,67.13c0,2.31.6,3.15,1.29,4.14.7,1,1.5,2.13,1.62,4.92l1.07-15.5h-3.22c-.2.54-.75,2.4-.75,6.44Z"/>
          <path class="cls-1" d="M119.94,13.51h-38.47c-8.54,33.41-8.54,66.82,0,100.23h38.47c7.77-33.41,7.77-66.82,0-100.23ZM110.08,60.52c-.06.1-.14.16-.23.16h-.29l-1.12,16.25c-.01.21-.14.37-.29.37h-15.43c-.14,0-.27-.15-.29-.35l-1.73-18.78c0-.12.01-.23.07-.32s.14-.14.22-.14h.02s-.02-.1-.04-.15c-.03-.2-.02-.52.17-.86.19-.33.37-.46.49-.55.13-.09.15-.11.19-.42.02-.22.17-.37.33-.34.16.03.27.24.24.46-.07.66-.26.84-.49,1.01-.1.08-.19.14-.3.34-.06.12-.06.18-.06.2.02.13.16.27.2.3,0,0,0,0,.01.01h8.16c.05-.1.14-.17.24-.17h2.13c-.04-.23-.11-.46-.2-.46h0c-.5.03-.6-.74-.66-1.24-.02-.15-.05-.39-.09-.5-.41.05-.85-.27-.98-.73-.11-.38,0-.77.29-1.04.02-.02.04-.04.05-.05-.09-.14-.36-.36-.55-.51-.06-.05-.13-.11-.19-.16-.24-.21-.41-.12-.7.07-.2.13-.43.28-.7.25-.49-.05-.5-.62-.5-.89,0-.32-.01-.68-.35-1.1-.19-.23-.47-.49-.75-.42-.22.06-.42.32-.55.72-.16.46-.29.8-.57.95-.23.12-.49.07-.96-.03l-.1-.02c-.42-.08-.59.28-.88.98-.15.35-.3.71-.52,1.01-.11.16-.29.16-.41,0-.11-.16-.11-.41,0-.57.17-.23.29-.54.42-.85.29-.68.65-1.54,1.46-1.37l.1.02c.33.07.57.12.67.07.06-.03.14-.24.24-.54.22-.64.55-1.05.96-1.17.29-.08.73-.04,1.26.6.52.65.54,1.3.55,1.68v.11c.11,0,.23-.09.37-.18.31-.2.73-.48,1.25-.03.06.05.13.11.19.16.47.39.84.7.85,1.2,0,.28-.11.52-.33.73-.04.04-.06.07-.07.09.04.09.22.25.4.2.11-.03.39-.03.55.47.06.2.1.46.13.7.02.18.06.47.11.58.51,0,.72.72.78,1.27h1.18v-4.04c0-.11.03-.21.09-.29l2.11-2.95c.06-.08.13-.12.21-.12h0c.08,0,.15.04.21.12l.63.88c.11.16.11.41,0,.57l-1.77,2.46v3.35h.83c.16,0,.29.18.29.4s-.13.4-.29.4h-5.99l-.3,1.52h9.4l-.3-1.52h-.48c-.16,0-.29-.18-.29-.4s.13-.4.29-.4h.7c.13,0,.24.12.28.3l.47,2.32c.02.12,0,.25-.05.35v.03Z"/>
          <path class="cls-1" d="M104.42,67.13c0-3.57.42-5.53.7-6.44h-1.27c-.2.54-.75,2.4-.75,6.44,0,2.31.6,3.15,1.29,4.14.73,1.04,1.56,2.22,1.62,5.23h1.33c-.06-2.67-.74-3.64-1.46-4.66s-1.45-2.07-1.45-4.7h0Z"/>
        </g>
      </g>
      <path class="cls-1" d="M122.9,13.51c9.01,33.82,9.01,67.23,0,100.23h33.22c12.43-33.41,12.43-66.82,0-100.23h-33.22ZM159.41,75.59v1.93h-12.28c-5.41,0-9.79-6.11-9.79-13.64s4.39-13.64,9.79-13.64,9.79,6.11,9.79,13.64c0,4.98-1.92,9.33-4.78,11.71h7.26Z"/>
    </g>
    <path class="cls-1" d="M153.97,69.33c.59-1.41.24-3.22-.78-4.04s-2.31-.33-2.9,1.08c-.59,1.41-.24,3.22.78,4.04s2.31.33,2.9-1.08Z"/>
    <path class="cls-1" d="M147.14,52.85c-1.17,0-2.13,1.32-2.13,2.95s.95,2.96,2.13,2.96,2.13-1.32,2.13-2.96-.95-2.95-2.13-2.95Z"/>
    <path class="cls-1" d="M148.12,63.87c0-.75-.44-1.36-.98-1.36s-.98.61-.98,1.36.44,1.36.98,1.36.98-.61.98-1.36Z"/>
  </g>
  <path class="cls-1" d="M193.09.9H8.49C3.8.9,0,5.95,0,12.19v102.87c0,6.23,3.8,11.28,8.49,11.28h184.6c4.69,0,8.49-5.05,8.49-11.28V12.19c0-6.23-3.8-11.28-8.49-11.28ZM24.68,110.16c0,1.93-1.18,3.5-2.63,3.5h-9.75c-1.45,0-2.63-1.57-2.63-3.5v-7.4c0-1.93,1.18-3.5,2.63-3.5h9.75c1.45,0,2.63,1.57,2.63,3.5v7.4ZM24.68,67.5c0,1.93-1.18,3.5-2.63,3.5h-9.75c-1.45,0-2.63-1.57-2.63-3.5v-7.4c0-1.93,1.18-3.5,2.63-3.5h9.75c1.45,0,2.63,1.57,2.63,3.5v7.4ZM24.68,24.33c0,1.93-1.18,3.5-2.63,3.5h-9.75c-1.45,0-2.63-1.57-2.63-3.5v-7.4c0-1.93,1.18-3.5,2.63-3.5h9.75c1.45,0,2.63,1.57,2.63,3.5v7.4ZM170.45,106.68c0,5.23-3.19,9.47-7.13,9.47H37.86c-3.94,0-7.13-4.24-7.13-9.47V19.52c0-5.23,3.19-9.47,7.13-9.47h125.47c3.94,0,7.13,4.24,7.13,9.47v87.16ZM190.96,110.11c0,1.93-1.18,3.5-2.63,3.5h-9.75c-1.45,0-2.63-1.57-2.63-3.5v-7.4c0-1.93,1.18-3.5,2.63-3.5h9.75c1.45,0,2.63,1.57,2.63,3.5v7.4ZM190.96,67.45c0,1.93-1.18,3.5-2.63,3.5h-9.75c-1.45,0-2.63-1.57-2.63-3.5v-7.4c0-1.93,1.18-3.5,2.63-3.5h9.75c1.45,0,2.63,1.57,2.63,3.5v7.4ZM190.96,24.28c0,1.93-1.18,3.5-2.63,3.5h-9.75c-1.45,0-2.63-1.57-2.63-3.5v-7.4c0-1.93,1.18-3.5,2.63-3.5h9.75c1.45,0,2.63,1.57,2.63,3.5v7.4Z"/>
</svg>