<?xml version="1.0" encoding="UTF-8"?>
<svg id="Layer_1" xmlns="http://www.w3.org/2000/svg" width="269.41" height="126.35" viewBox="0 0 269.41 126.35">
  <defs>
    <style>
      .cls-1 {
        fill: #fff;
      }
    </style>
  </defs>
  <path class="cls-1" d="M264.8,39.68h-2.72v-20.23c3.76-1.54,6.4-5.14,6.4-9.33,0-5.59-4.69-10.13-10.48-10.13s-10.48,4.54-10.48,10.13c0,4.19,2.64,7.79,6.4,9.33v20.23h-7.33v42.98h18.21c2.55,0,4.61-1.99,4.61-4.45v-34.07c0-2.46-2.06-4.45-4.61-4.45Z"/>
  <path class="cls-1" d="M180.89,68.91c-1.44,0-2.62,1.32-2.62,2.96s1.17,2.96,2.62,2.96,2.62-1.32,2.62-2.96-1.17-2.96-2.62-2.96Z"/>
  <path class="cls-1" d="M173.44,62.38c1.25.82,2.85.33,3.57-1.08.72-1.41.29-3.22-.95-4.04s-2.85-.33-3.57,1.08c-.72,1.41-.29,3.22.95,4.04Z"/>
  <path class="cls-1" d="M173.44,65.29c-1.25.82-1.68,2.62-.95,4.04.72,1.41,2.31,1.9,3.57,1.08,1.25-.82,1.68-2.62.95-4.04-.72-1.41-2.31-1.9-3.57-1.08Z"/>
  <path class="cls-1" d="M188.34,62.38c1.25-.82,1.68-2.62.95-4.04-.72-1.41-2.31-1.9-3.57-1.08-1.25.82-1.68,2.62-.95,4.04.72,1.41,2.31,1.9,3.57,1.08Z"/>
  <g>
    <g>
      <path class="cls-1" d="M55.22,60.44c-.66,0-1.19.61-1.19,1.35s.54,1.35,1.19,1.35,1.19-.61,1.19-1.35-.54-1.35-1.19-1.35Z"/>
      <polygon class="cls-1" points="73.24 62.19 70.73 62.19 69.46 64.47 71.97 64.47 73.24 62.19"/>
      <polygon class="cls-1" points="59.62 55.95 57.24 56.85 56.68 59.47 59.05 58.57 59.62 55.95"/>
      <polygon class="cls-1" points="65.49 53.73 63.12 54.63 62.54 57.25 64.93 56.35 65.49 53.73"/>
      <polygon class="cls-1" points="59.58 64.47 60.86 62.19 58.35 62.19 57.07 64.47 59.58 64.47"/>
      <path class="cls-1" d="M95.74,13.51h-40.88c-15.29,33.41-15.29,66.82,0,100.23h40.87c-11.09-33.01-11.09-66.42,0-100.23h0ZM76.24,76.63c0,.49-.35.89-.79.89h-20.6c-.43,0-.79-.4-.79-.89v-12.52c-.72-.45-1.2-1.32-1.2-2.32,0-.77.29-1.46.75-1.94l-.46-1.57c-.14-.46.09-.97.49-1.12l19.54-7.38c.41-.15.86.1.99.56l.95,3.2-17.96,6.79c.2.34.34.73.38,1.16h18.7v15.15h0Z"/>
      <polygon class="cls-1" points="71.37 51.51 68.99 52.41 68.42 55.03 70.8 54.13 71.37 51.51"/>
      <polygon class="cls-1" points="67.05 62.19 64.54 62.19 63.27 64.47 65.78 64.47 67.05 62.19"/>
      <polygon class="cls-1" points="63.93 73.2 68.15 70.2 63.93 67.19 63.93 73.2"/>
    </g>
    <g>
      <path class="cls-1" d="M128.98,57.55v-3.52c0-.11.04-.21.11-.29l2.02-2.3-.27-.31-2.24,2.54v3.87h.39,0Z"/>
      <g>
        <polygon class="cls-1" points="113.74 58.52 115.79 76.49 116.88 76.49 115.75 58.52 113.74 58.52"/>
        <polygon class="cls-1" points="117.6 76.49 118.84 76.49 118.84 58.52 116.47 58.52 117.6 76.49"/>
        <polygon class="cls-1" points="112.2 58.52 114.24 76.49 115.06 76.49 113.02 58.52 112.2 58.52"/>
        <polygon class="cls-1" points="119.55 58.52 119.55 76.49 120.8 76.49 121.93 58.52 119.55 58.52"/>
        <path class="cls-1" d="M125.97,67.13c0-3.57.51-5.53.86-6.44h-3.38l.34,4.06c.02.22-.12.42-.32.44-.19.02-.37-.14-.39-.36l-.35-4.14h-.22l-.99,15.81h1.1l.4-3.54c.03-.22.2-.38.4-.35.19.03.34.23.31.45l-.39,3.44h.72l-.71-8.3c-.02-.22.12-.42.32-.44.19-.02.37.14.39.36l.71,8.37h4.78c-.08-2.67-.91-3.64-1.79-4.66s-1.78-2.07-1.78-4.7h0Z"/>
        <path class="cls-1" d="M129.05,67.13c0,2.31.73,3.15,1.58,4.14.87,1,1.85,2.13,1.99,4.92l1.32-15.5h-3.96c-.25.54-.93,2.4-.93,6.44Z"/>
        <path class="cls-1" d="M147.43,13.51h-47.33c-10.51,33.41-10.51,66.82,0,100.23h47.33c9.56-33.41,9.56-66.82,0-100.23ZM135.29,60.52c-.07.1-.18.16-.28.16h-.36l-1.38,16.25c-.02.21-.17.37-.35.37h-18.99c-.18,0-.34-.15-.35-.35l-2.13-18.78c0-.12.02-.23.09-.32s.17-.14.27-.14h.03s-.03-.1-.04-.15c-.04-.2-.03-.52.2-.86.23-.33.45-.46.6-.55.16-.09.19-.11.23-.42.03-.22.21-.37.41-.34.19.03.33.24.3.46-.09.66-.32.84-.6,1.01-.12.08-.24.14-.37.34-.08.12-.07.18-.07.2.03.13.19.27.25.3,0,0,0,0,.02.01h10.05c.06-.1.17-.17.29-.17h2.62c-.04-.23-.13-.46-.25-.46h0c-.61.03-.73-.74-.81-1.24-.03-.15-.06-.39-.11-.5-.5.05-1.04-.27-1.2-.73-.13-.38,0-.77.36-1.04.03-.02.04-.04.06-.05-.11-.14-.44-.36-.67-.51-.08-.05-.16-.11-.24-.16-.3-.21-.5-.12-.87.07-.25.13-.53.28-.87.25-.6-.05-.61-.62-.62-.89,0-.32-.02-.68-.43-1.1-.23-.23-.58-.49-.93-.42-.27.06-.51.32-.67.72-.19.46-.35.8-.7.95-.28.12-.6.07-1.18-.03l-.12-.02c-.51-.08-.72.28-1.09.98-.19.35-.37.71-.64,1.01-.14.16-.36.16-.5,0-.14-.16-.14-.41,0-.57.2-.23.36-.54.52-.85.35-.68.8-1.54,1.8-1.37l.12.02c.41.07.71.12.82.07.08-.03.18-.24.3-.54.27-.64.68-1.05,1.18-1.17.35-.08.9-.04,1.55.6.64.65.66,1.3.67,1.68v.11c.13,0,.28-.09.46-.18.38-.2.89-.48,1.54-.03.08.05.16.11.23.16.58.39,1.03.7,1.05,1.2,0,.28-.13.52-.41.73-.05.04-.08.07-.09.09.04.09.27.25.49.2.14-.03.49-.03.68.47.08.2.12.46.16.7.03.18.08.47.13.58.63,0,.88.72.96,1.27h1.46v-4.04c0-.11.04-.21.11-.29l2.6-2.95c.07-.08.16-.12.26-.12h0c.1,0,.19.04.26.12l.78.88c.14.16.14.41,0,.57l-2.17,2.46v3.35h1.02c.19,0,.35.18.35.4s-.16.4-.35.4h-7.37l-.37,1.52h11.57l-.37-1.52h-.59c-.19,0-.35-.18-.35-.4s.16-.4.35-.4h.86c.16,0,.3.12.34.3l.57,2.32c.03.12,0,.25-.06.35v.03Z"/>
        <path class="cls-1" d="M128.33,67.13c0-3.57.51-5.53.86-6.44h-1.56c-.25.54-.93,2.4-.93,6.44,0,2.31.73,3.15,1.58,4.14.9,1.04,1.92,2.22,2,5.23h1.63c-.08-2.67-.91-3.64-1.79-4.66s-1.78-2.07-1.78-4.7h0Z"/>
      </g>
    </g>
    <path class="cls-1" d="M151.07,13.51c11.09,33.82,11.09,67.23,0,100.23h40.87c15.29-33.41,15.29-66.82,0-100.23h-40.87ZM195.99,75.59v1.93h-15.11c-6.65,0-12.05-6.11-12.05-13.64s5.4-13.64,12.05-13.64,12.05,6.11,12.05,13.64c0,4.98-2.36,9.33-5.88,11.71h8.93Z"/>
  </g>
  <path class="cls-1" d="M189.3,69.33c.72-1.41.29-3.22-.95-4.04s-2.85-.33-3.57,1.08c-.72,1.41-.29,3.22.95,4.04s2.85.33,3.57-1.08Z"/>
  <path class="cls-1" d="M180.89,52.85c-1.44,0-2.62,1.32-2.62,2.95s1.17,2.96,2.62,2.96,2.62-1.32,2.62-2.96-1.17-2.95-2.62-2.95Z"/>
  <path class="cls-1" d="M182.1,63.87c0-.75-.54-1.36-1.2-1.36s-1.2.61-1.2,1.36.54,1.36,1.2,1.36,1.2-.61,1.2-1.36Z"/>
  <path class="cls-1" d="M233.53.9H10.27C4.6.9,0,5.95,0,12.19v102.87c0,6.23,4.6,11.28,10.27,11.28h223.26c5.67,0,10.27-5.05,10.27-11.28V12.19c0-6.23-4.6-11.28-10.27-11.28ZM29.85,110.16c0,1.93-1.43,3.5-3.19,3.5h-11.79c-1.76,0-3.19-1.57-3.19-3.5v-7.4c0-1.93,1.43-3.5,3.19-3.5h11.79c1.76,0,3.19,1.57,3.19,3.5v7.4ZM29.85,67.5c0,1.93-1.43,3.5-3.19,3.5h-11.79c-1.76,0-3.19-1.57-3.19-3.5v-7.4c0-1.93,1.43-3.5,3.19-3.5h11.79c1.76,0,3.19,1.57,3.19,3.5v7.4ZM29.85,24.33c0,1.93-1.43,3.5-3.19,3.5h-11.79c-1.76,0-3.19-1.57-3.19-3.5v-7.4c0-1.93,1.43-3.5,3.19-3.5h11.79c1.76,0,3.19,1.57,3.19,3.5v7.4ZM206.15,106.68c0,5.23-3.86,9.47-8.62,9.47H45.79c-4.76,0-8.62-4.24-8.62-9.47V19.52c0-5.23,3.86-9.47,8.62-9.47h151.74c4.76,0,8.62,4.24,8.62,9.47v87.16ZM230.95,110.11c0,1.93-1.43,3.5-3.19,3.5h-11.79c-1.76,0-3.19-1.57-3.19-3.5v-7.4c0-1.93,1.43-3.5,3.19-3.5h11.79c1.76,0,3.19,1.57,3.19,3.5v7.4ZM230.95,67.45c0,1.93-1.43,3.5-3.19,3.5h-11.79c-1.76,0-3.19-1.57-3.19-3.5v-7.4c0-1.93,1.43-3.5,3.19-3.5h11.79c1.76,0,3.19,1.57,3.19,3.5v7.4ZM230.95,24.28c0,1.93-1.43,3.5-3.19,3.5h-11.79c-1.76,0-3.19-1.57-3.19-3.5v-7.4c0-1.93,1.43-3.5,3.19-3.5h11.79c1.76,0,3.19,1.57,3.19,3.5v7.4Z"/>
</svg>